<?xml version="1.0" standalone="no"?>
<!DOCTYPE svg PUBLIC "-//W3C//DTD SVG 20010904//EN"
 "http://www.w3.org/TR/2001/REC-SVG-20010904/DTD/svg10.dtd">
<svg version="1.0" xmlns="http://www.w3.org/2000/svg"
 width="1024.000000pt" height="1024.000000pt" viewBox="0 0 1024.000000 1024.000000"
 preserveAspectRatio="xMidYMid meet">

<g transform="translate(0.000000,1024.000000) scale(0.100000,-0.100000)"
fill="#ffffff" stroke="none">
<path d="M1841 6503 c0 -1944 4 -3486 9 -3548 5 -60 14 -139 20 -175 5 -36 12
-81 15 -100 3 -19 11 -53 16 -75 6 -22 15 -58 21 -80 12 -45 29 -108 49 -175
7 -25 16 -49 21 -54 4 -6 8 -18 8 -28 0 -10 4 -26 9 -36 5 -9 13 -28 19 -42
52 -129 161 -346 211 -418 23 -34 41 -64 41 -67 0 -4 26 -43 58 -87 31 -44 64
-90 72 -103 16 -24 71 -96 80 -105 3 -3 29 -34 59 -70 102 -123 303 -320 421
-412 157 -121 424 -298 449 -298 5 0 11 -3 13 -7 7 -17 274 -149 338 -168 14
-4 45 -16 70 -27 58 -26 77 -33 120 -48 19 -7 44 -16 55 -20 11 -5 31 -11 45
-15 14 -4 48 -13 75 -20 219 -59 236 -64 360 -85 277 -49 666 -57 975 -20 47
6 109 13 138 17 29 3 55 9 58 14 3 5 19 9 36 9 18 0 45 4 62 9 50 15 167 49
231 67 125 34 180 54 278 98 32 14 60 26 63 26 3 0 35 14 72 31 37 17 78 36
92 42 55 26 267 151 302 178 20 16 41 29 46 29 5 0 17 9 27 20 10 11 22 20 26
20 13 0 92 56 118 84 14 14 28 26 33 26 9 0 23 12 173 147 141 127 276 273
370 397 17 22 47 61 68 88 20 27 37 51 37 53 0 6 64 100 85 125 7 8 24 35 37
60 14 25 34 61 45 80 27 48 114 221 123 245 4 11 15 36 23 55 9 19 25 62 37
95 11 33 25 68 31 77 5 10 9 27 9 37 0 11 5 23 10 26 6 3 10 17 10 30 0 13 4
26 9 29 5 3 11 20 14 38 3 18 13 65 22 103 19 83 34 171 47 280 6 49 12 808
14 1975 l4 1894 -122 -119 c-68 -66 -188 -183 -267 -260 -79 -77 -595 -588
-1145 -1135 -551 -548 -1084 -1076 -1186 -1175 -101 -99 -337 -331 -525 -515
-187 -184 -398 -391 -469 -460 -71 -69 -246 -240 -389 -381 l-260 -255 16 -30
c17 -33 180 -200 236 -242 20 -15 42 -33 50 -40 19 -18 129 -92 136 -92 4 0
19 -8 33 -18 15 -10 68 -35 117 -56 117 -50 125 -53 155 -61 14 -3 41 -11 60
-16 143 -38 190 -43 385 -43 225 -1 290 8 470 66 67 22 76 25 158 62 32 14 60
26 62 26 6 0 177 111 185 120 3 3 23 18 45 34 82 60 237 231 309 341 40 61 79
126 88 145 30 67 55 125 67 160 7 19 17 44 21 55 5 11 11 34 15 50 3 17 10 48
16 70 35 147 39 243 39 994 l0 743 82 79 c45 43 85 79 89 79 10 0 0 -1622 -11
-1715 -5 -44 -12 -96 -15 -115 -4 -19 -9 -52 -12 -73 -3 -20 -9 -40 -14 -43
-5 -3 -9 -15 -9 -26 0 -38 -71 -227 -125 -333 -90 -176 -168 -279 -330 -438
-147 -145 -321 -259 -515 -339 -14 -6 -33 -14 -42 -19 -10 -5 -27 -9 -37 -9
-11 0 -23 -4 -26 -10 -3 -5 -19 -10 -35 -10 -16 0 -32 -4 -35 -10 -3 -5 -21
-10 -40 -10 -19 0 -36 -4 -39 -9 -3 -4 -69 -14 -147 -21 -145 -13 -378 -8
-489 11 -30 5 -74 12 -98 15 -23 4 -45 11 -48 15 -3 5 -16 9 -30 9 -13 0 -32
4 -42 9 -9 5 -44 19 -77 31 -87 33 -240 108 -316 156 -110 70 -158 110 -287
237 -169 168 -299 363 -384 577 -6 14 -14 33 -19 42 -5 10 -9 26 -9 36 0 10
-4 22 -9 28 -9 9 -50 185 -70 300 -8 42 -11 1070 -11 3432 l0 3372 -765 0
-765 0 1 -3437z"/>
<path d="M4300 8423 c0 -834 3 -1513 8 -1509 4 4 252 249 551 544 299 296 742
734 985 974 l441 437 463 1 463 0 530 529 c291 291 529 532 529 535 0 3 -893
6 -1985 6 l-1985 0 0 -1517z"/>
<path d="M6903 7843 l-203 -3 0 -381 0 -380 -27 -37 c-44 -58 -125 -142 -139
-142 -9 0 -11 101 -7 455 2 250 1 455 -2 455 -11 0 -65 -52 -559 -541 -265
-262 -614 -607 -776 -767 -162 -159 -429 -422 -592 -584 l-298 -294 0 -607 c0
-428 3 -607 11 -607 6 0 108 96 227 213 119 118 255 249 302 293 47 43 186
179 310 300 124 122 254 250 290 284 36 34 209 202 384 374 176 171 345 336
376 366 32 30 171 167 311 304 140 137 342 335 450 440 443 434 869 855 869
860 0 6 -500 5 -927 -1z"/>
</g>
</svg>
